<mxfile host="app.diagrams.net" modified="2023-08-27T04:13:29.714Z" agent="Mozilla/5.0 (X11; Linux x86_64; rv:109.0) Gecko/20100101 Firefox/112.0" etag="Gy6lpBOuF9PJjvSVWs4X" version="21.6.3" type="device">
  <diagram id="C5RBs43oDa-KdzZeNtuy" name="Page-1">
    <mxGraphModel dx="1147" dy="572" grid="1" gridSize="10" guides="1" tooltips="1" connect="1" arrows="1" fold="1" page="1" pageScale="1" pageWidth="827" pageHeight="1169" math="0" shadow="0">
      <root>
        <mxCell id="WIyWlLk6GJQsqaUBKTNV-0" />
        <mxCell id="WIyWlLk6GJQsqaUBKTNV-1" parent="WIyWlLk6GJQsqaUBKTNV-0" />
        <mxCell id="-PdL6HUcCd3HRVwnTGhl-5" value="" style="rounded=0;whiteSpace=wrap;html=1;" parent="WIyWlLk6GJQsqaUBKTNV-1" vertex="1">
          <mxGeometry x="570" y="770" width="790" height="560" as="geometry" />
        </mxCell>
        <mxCell id="3TPBliiVLT5k9kqOGAwY-2" style="edgeStyle=orthogonalEdgeStyle;rounded=0;orthogonalLoop=1;jettySize=auto;html=1;exitX=0.5;exitY=1;exitDx=0;exitDy=0;entryX=0.5;entryY=0;entryDx=0;entryDy=0;" parent="WIyWlLk6GJQsqaUBKTNV-1" source="WIyWlLk6GJQsqaUBKTNV-3" target="3TPBliiVLT5k9kqOGAwY-0" edge="1">
          <mxGeometry relative="1" as="geometry" />
        </mxCell>
        <mxCell id="WIyWlLk6GJQsqaUBKTNV-3" value="&lt;div&gt;Central Liga&lt;/div&gt;" style="rounded=1;whiteSpace=wrap;html=1;fontSize=12;glass=0;strokeWidth=1;shadow=0;fillColor=#dae8fc;strokeColor=#6c8ebf;" parent="WIyWlLk6GJQsqaUBKTNV-1" vertex="1">
          <mxGeometry x="160" y="23" width="120" height="40" as="geometry" />
        </mxCell>
        <mxCell id="3TPBliiVLT5k9kqOGAwY-9" style="edgeStyle=orthogonalEdgeStyle;rounded=0;orthogonalLoop=1;jettySize=auto;html=1;entryX=0.5;entryY=0;entryDx=0;entryDy=0;" parent="WIyWlLk6GJQsqaUBKTNV-1" source="3TPBliiVLT5k9kqOGAwY-0" target="3TPBliiVLT5k9kqOGAwY-4" edge="1">
          <mxGeometry relative="1" as="geometry" />
        </mxCell>
        <mxCell id="3TPBliiVLT5k9kqOGAwY-0" value="Lê as configurações da rede na EEPROM" style="rounded=1;whiteSpace=wrap;html=1;fontSize=12;glass=0;strokeWidth=1;shadow=0;fillColor=#dae8fc;strokeColor=#6c8ebf;" parent="WIyWlLk6GJQsqaUBKTNV-1" vertex="1">
          <mxGeometry x="160" y="93" width="120" height="40" as="geometry" />
        </mxCell>
        <mxCell id="fODg9ov51nU1RLH3mTZg-1" style="edgeStyle=orthogonalEdgeStyle;rounded=0;orthogonalLoop=1;jettySize=auto;html=1;entryX=0.5;entryY=0;entryDx=0;entryDy=0;" edge="1" parent="WIyWlLk6GJQsqaUBKTNV-1" source="3TPBliiVLT5k9kqOGAwY-4" target="3TPBliiVLT5k9kqOGAwY-6">
          <mxGeometry relative="1" as="geometry" />
        </mxCell>
        <mxCell id="fODg9ov51nU1RLH3mTZg-2" value="Sim" style="edgeLabel;html=1;align=center;verticalAlign=middle;resizable=0;points=[];" vertex="1" connectable="0" parent="fODg9ov51nU1RLH3mTZg-1">
          <mxGeometry x="0.2519" y="1" relative="1" as="geometry">
            <mxPoint y="2" as="offset" />
          </mxGeometry>
        </mxCell>
        <mxCell id="fODg9ov51nU1RLH3mTZg-7" value="Não" style="edgeStyle=orthogonalEdgeStyle;rounded=0;orthogonalLoop=1;jettySize=auto;html=1;endArrow=oval;endFill=1;exitX=0;exitY=0.5;exitDx=0;exitDy=0;" edge="1" parent="WIyWlLk6GJQsqaUBKTNV-1" source="3TPBliiVLT5k9kqOGAwY-4">
          <mxGeometry x="-0.2249" relative="1" as="geometry">
            <mxPoint x="220" y="275" as="targetPoint" />
            <mxPoint x="270" y="220" as="sourcePoint" />
            <Array as="points">
              <mxPoint x="90" y="180" />
              <mxPoint x="90" y="275" />
            </Array>
            <mxPoint as="offset" />
          </mxGeometry>
        </mxCell>
        <mxCell id="3TPBliiVLT5k9kqOGAwY-4" value="&lt;div&gt;Mensagem nova &lt;br&gt;&lt;/div&gt;&lt;div&gt;do Servidor?&lt;/div&gt;" style="shape=parallelogram;perimeter=parallelogramPerimeter;whiteSpace=wrap;html=1;fixedSize=1;fillColor=#fff2cc;strokeColor=#d6b656;" parent="WIyWlLk6GJQsqaUBKTNV-1" vertex="1">
          <mxGeometry x="147" y="160" width="145" height="40" as="geometry" />
        </mxCell>
        <mxCell id="fODg9ov51nU1RLH3mTZg-5" style="edgeStyle=orthogonalEdgeStyle;rounded=0;orthogonalLoop=1;jettySize=auto;html=1;entryX=0.5;entryY=0;entryDx=0;entryDy=0;" edge="1" parent="WIyWlLk6GJQsqaUBKTNV-1" source="3TPBliiVLT5k9kqOGAwY-6">
          <mxGeometry relative="1" as="geometry">
            <mxPoint x="219.5" y="290" as="targetPoint" />
          </mxGeometry>
        </mxCell>
        <mxCell id="3TPBliiVLT5k9kqOGAwY-6" value="Alterar Variáveis de Controle do programa" style="rounded=1;whiteSpace=wrap;html=1;fontSize=12;glass=0;strokeWidth=1;shadow=0;fillColor=#f8cecc;strokeColor=#b85450;" parent="WIyWlLk6GJQsqaUBKTNV-1" vertex="1">
          <mxGeometry x="149.5" y="226" width="140" height="40" as="geometry" />
        </mxCell>
        <mxCell id="3TPBliiVLT5k9kqOGAwY-19" style="edgeStyle=orthogonalEdgeStyle;rounded=0;orthogonalLoop=1;jettySize=auto;html=1;exitX=0.5;exitY=1;exitDx=0;exitDy=0;entryX=0.5;entryY=0;entryDx=0;entryDy=0;" parent="WIyWlLk6GJQsqaUBKTNV-1" source="3TPBliiVLT5k9kqOGAwY-17" target="3TPBliiVLT5k9kqOGAwY-18" edge="1">
          <mxGeometry relative="1" as="geometry" />
        </mxCell>
        <mxCell id="3TPBliiVLT5k9kqOGAwY-17" value="Executar protocolo de coleta de dados" style="rounded=1;whiteSpace=wrap;html=1;fontSize=12;glass=0;strokeWidth=1;shadow=0;fillColor=#f8cecc;strokeColor=#b85450;" parent="WIyWlLk6GJQsqaUBKTNV-1" vertex="1">
          <mxGeometry x="340" y="380" width="120" height="40" as="geometry" />
        </mxCell>
        <mxCell id="3TPBliiVLT5k9kqOGAwY-25" style="edgeStyle=orthogonalEdgeStyle;rounded=0;orthogonalLoop=1;jettySize=auto;html=1;entryX=0.5;entryY=0;entryDx=0;entryDy=0;" parent="WIyWlLk6GJQsqaUBKTNV-1" source="3TPBliiVLT5k9kqOGAwY-18" target="3TPBliiVLT5k9kqOGAwY-24" edge="1">
          <mxGeometry relative="1" as="geometry" />
        </mxCell>
        <mxCell id="3TPBliiVLT5k9kqOGAwY-18" value="Montar pacote" style="rounded=1;whiteSpace=wrap;html=1;fontSize=12;glass=0;strokeWidth=1;shadow=0;fillColor=#dae8fc;strokeColor=#6c8ebf;" parent="WIyWlLk6GJQsqaUBKTNV-1" vertex="1">
          <mxGeometry x="340" y="450" width="120" height="40" as="geometry" />
        </mxCell>
        <mxCell id="fODg9ov51nU1RLH3mTZg-10" value="Sim" style="edgeStyle=orthogonalEdgeStyle;rounded=0;orthogonalLoop=1;jettySize=auto;html=1;entryX=0.5;entryY=0;entryDx=0;entryDy=0;" edge="1" parent="WIyWlLk6GJQsqaUBKTNV-1" source="3TPBliiVLT5k9kqOGAwY-20" target="3TPBliiVLT5k9kqOGAwY-28">
          <mxGeometry x="-0.3095" relative="1" as="geometry">
            <mxPoint as="offset" />
          </mxGeometry>
        </mxCell>
        <mxCell id="fODg9ov51nU1RLH3mTZg-12" value="Não" style="edgeStyle=orthogonalEdgeStyle;rounded=0;orthogonalLoop=1;jettySize=auto;html=1;exitX=1;exitY=0.5;exitDx=0;exitDy=0;entryX=0.5;entryY=0;entryDx=0;entryDy=0;" edge="1" parent="WIyWlLk6GJQsqaUBKTNV-1" source="3TPBliiVLT5k9kqOGAwY-20" target="3TPBliiVLT5k9kqOGAwY-17">
          <mxGeometry relative="1" as="geometry" />
        </mxCell>
        <mxCell id="3TPBliiVLT5k9kqOGAwY-20" value="Sensor solicitando entrada na rede?" style="shape=parallelogram;perimeter=parallelogramPerimeter;whiteSpace=wrap;html=1;fixedSize=1;fillColor=#fff2cc;strokeColor=#d6b656;" parent="WIyWlLk6GJQsqaUBKTNV-1" vertex="1">
          <mxGeometry x="152" y="290" width="140" height="40" as="geometry" />
        </mxCell>
        <mxCell id="fODg9ov51nU1RLH3mTZg-14" style="edgeStyle=orthogonalEdgeStyle;rounded=0;orthogonalLoop=1;jettySize=auto;html=1;entryX=0.968;entryY=0.48;entryDx=0;entryDy=0;entryPerimeter=0;" edge="1" parent="WIyWlLk6GJQsqaUBKTNV-1" source="3TPBliiVLT5k9kqOGAwY-24" target="3TPBliiVLT5k9kqOGAwY-4">
          <mxGeometry relative="1" as="geometry">
            <Array as="points">
              <mxPoint x="540" y="550" />
              <mxPoint x="540" y="179" />
            </Array>
          </mxGeometry>
        </mxCell>
        <mxCell id="3TPBliiVLT5k9kqOGAwY-24" value="Enviar pacote para o servidor" style="rounded=1;whiteSpace=wrap;html=1;fontSize=12;glass=0;strokeWidth=1;shadow=0;fillColor=#d5e8d4;strokeColor=#82b366;" parent="WIyWlLk6GJQsqaUBKTNV-1" vertex="1">
          <mxGeometry x="340" y="530" width="120" height="40" as="geometry" />
        </mxCell>
        <mxCell id="3TPBliiVLT5k9kqOGAwY-31" style="edgeStyle=orthogonalEdgeStyle;rounded=0;orthogonalLoop=1;jettySize=auto;html=1;entryX=0.5;entryY=0;entryDx=0;entryDy=0;" parent="WIyWlLk6GJQsqaUBKTNV-1" source="3TPBliiVLT5k9kqOGAwY-28" target="3TPBliiVLT5k9kqOGAwY-32" edge="1">
          <mxGeometry relative="1" as="geometry">
            <mxPoint x="173.5" y="530" as="targetPoint" />
            <Array as="points">
              <mxPoint x="85" y="390" />
              <mxPoint x="85" y="390" />
            </Array>
          </mxGeometry>
        </mxCell>
        <mxCell id="3TPBliiVLT5k9kqOGAwY-28" value="Executar protocolo de entrada na rede" style="rounded=1;whiteSpace=wrap;html=1;fontSize=12;glass=0;strokeWidth=1;shadow=0;fillColor=#f8cecc;strokeColor=#b85450;" parent="WIyWlLk6GJQsqaUBKTNV-1" vertex="1">
          <mxGeometry x="25" y="340" width="120" height="40" as="geometry" />
        </mxCell>
        <mxCell id="3TPBliiVLT5k9kqOGAwY-33" style="edgeStyle=orthogonalEdgeStyle;rounded=0;orthogonalLoop=1;jettySize=auto;html=1;entryX=0.5;entryY=0;entryDx=0;entryDy=0;" parent="WIyWlLk6GJQsqaUBKTNV-1" source="3TPBliiVLT5k9kqOGAwY-32" edge="1" target="3TPBliiVLT5k9kqOGAwY-35">
          <mxGeometry relative="1" as="geometry">
            <mxPoint x="173.5" y="620" as="targetPoint" />
          </mxGeometry>
        </mxCell>
        <mxCell id="3TPBliiVLT5k9kqOGAwY-32" value="Salvar alterações na EEPROM" style="rounded=1;whiteSpace=wrap;html=1;fontSize=12;glass=0;strokeWidth=1;shadow=0;fillColor=#dae8fc;strokeColor=#6c8ebf;" parent="WIyWlLk6GJQsqaUBKTNV-1" vertex="1">
          <mxGeometry x="25" y="400" width="120" height="40" as="geometry" />
        </mxCell>
        <mxCell id="fODg9ov51nU1RLH3mTZg-13" style="edgeStyle=orthogonalEdgeStyle;rounded=0;orthogonalLoop=1;jettySize=auto;html=1;entryX=0;entryY=0.5;entryDx=0;entryDy=0;" edge="1" parent="WIyWlLk6GJQsqaUBKTNV-1" source="3TPBliiVLT5k9kqOGAwY-35" target="3TPBliiVLT5k9kqOGAwY-17">
          <mxGeometry relative="1" as="geometry" />
        </mxCell>
        <mxCell id="3TPBliiVLT5k9kqOGAwY-35" value="Informar o Servidor das alterações na rede" style="rounded=1;whiteSpace=wrap;html=1;fontSize=12;glass=0;strokeWidth=1;shadow=0;fillColor=#d5e8d4;strokeColor=#82b366;" parent="WIyWlLk6GJQsqaUBKTNV-1" vertex="1">
          <mxGeometry x="10" y="460" width="150" height="40" as="geometry" />
        </mxCell>
        <mxCell id="-PdL6HUcCd3HRVwnTGhl-6" value="Main Loop do Módulo Central" style="rounded=1;whiteSpace=wrap;html=1;fillColor=#f5f5f5;gradientColor=#b3b3b3;strokeColor=#666666;" parent="WIyWlLk6GJQsqaUBKTNV-1" vertex="1">
          <mxGeometry x="560" y="10" width="220" height="30" as="geometry" />
        </mxCell>
      </root>
    </mxGraphModel>
  </diagram>
</mxfile>
